<?xml version="1.0" encoding="UTF-8"?>
<svg id="Capa_2" data-name="Capa 2" xmlns="http://www.w3.org/2000/svg" viewBox="0 0 108.65 153.85">
  <defs>
    <style>
      .cls-1, .cls-2 {
        stroke-width: 0px;
      }

      .cls-2 {
        fill: #f39200;
      }
    </style>
  </defs>
  <g id="Capa_1-2" data-name="Capa 1">
    <g>
      <path class="cls-1" d="m30.24.04h2.45c13.31,0,24.38,3.57,33.22,10.72,9.05,8.18,13.58,18.79,13.58,31.83v.74c0,14.07-6.16,24.84-18.49,32.32-8.35,4.47-23.73,6.67-35.51,6.67l8.06.04c-2.4,0-15.51-.09-17.42-.2h8.67c0,8.73.03,16.63-.01,23.84-.03,4.47-.89,8.34-5.14,11.18-2.13,1.15-4.28,1.72-6.46,1.72-4.86,0-8.7-2.43-11.54-7.28-1.31-3-1.29-7.62-1.29-13.3-.6-9.87.23-37.48-.21-83.41,0-2.73-.85-5.46,1.5-8.19,2.29-2.18,4.36-3.46,6.22-3.85C16.26.9,23.37.04,30.24.04Zm-6.87,26.26l.33,28.8.08,1.23c2.13.27,4.53.41,7.2.41,12.05-.22,19.33-2.86,21.84-7.94.71-1.64,1.06-3.6,1.06-5.89,0-7.58-2.7-12.49-8.1-14.73-3.6-1.64-8.37-2.45-14.32-2.45h-.25c-4.91.11-7.53.3-7.85.57Z"/>
      <path class="cls-2" d="m77.77,153.85c-6.43,0-18.04-3.99-22.7-7.18-4.67,3.19-15.22,6.03-21.83,6.03-11.96,0-25.23-6.87-30.26-17.53l-.09-.19c-1.82-4.2-2.75-8.39-2.75-12.45v-27.94c0-6.8,5.52-12.32,12.32-12.32h0c6.8,0,12.32,5.52,12.32,12.32v27.6c0,1.68,1.4,8.61,8.79,9.1s8.05-5.34,8.42-6.15c.58-1.49.67-2.34.67-2.72v-27.63c0-6.93,5.6-12.57,12.53-12.61h0c7-.04,12.7,5.63,12.68,12.63l-.05,27.94c0,1.11.4,2.27,1.21,3.52.51.34,2.52,5.11,7.24,4.57,5.98-.68,6.79-4.88,7.3-6.62l.12-.36c.21-.58.32-1.39.32-2.33l-.02-109.22c0-6.8,5.52-12.32,12.32-12.32h0c6.8,0,12.32,5.52,12.32,12.32l.02,109.46c0,8.86-3.13,16.43-9.31,22.48l-.27.25c-5.22,4.59-9.24,9.34-21.3,9.34Z"/>
    </g>
  </g>
</svg>